# xmcd
#
# Track frame offsets: 
#        187
#        18542
#        32332
#        45057
#        56895
#        69470
#        89597
#        100267
#        113480
#        124790
#        138515
#        149637
#        160810
#        173572
#        184340
#        204372
#        218985
#        232180
#        244447
#        257597
#        270420
#
# Disc length: 3761 seconds
#
# Revision: 4
# Processed by: cddbd v1.5.2PL0 Copyright (c) Steve Scherf et al.
# Submitted via: ExactAudioCopy v0.99pb4
#
DISCID=2f0eaf15
DTITLE=Bo Diddley - The Chess Box [CD2]
DYEAR=19900719
DGENRE=Blues
TTITLE0=She's Alright
TTITLE1=Say Man, Back Again [alt. take]
TTITLE2=Road Runner
TTITLE3=Spend My Life With You
TTITLE4=Cadillac
TTITLE5=Signifying Blues [extended version]
TTITLE6=Deed And Deed I Do
TTITLE7=You Know I Love You
TTITLE8=Look At My Baby
TTITLE9=Ride On Josephine
TTITLE10=Aztec
TTITLE11=Back Home
TTITLE12=Pills
TTITLE13=Untitled Instrumental
TTITLE14=I Can Tell
TTITLE15=You Can't Judge A Book By It's Cover
TTITLE16=Who May Your Lover Be
TTITLE17=The Greatest Lover In The World
TTITLE18=500% More Man
TTITLE19=Ooh Baby
TTITLE20=Bo Diddley
EXTD=YEAR: 19900719 ID3G: 17
EXTT0=
EXTT1=
EXTT2=
EXTT3=
EXTT4=
EXTT5=
EXTT6=
EXTT7=
EXTT8=
EXTT9=
EXTT10=
EXTT11=
EXTT12=
EXTT13=
EXTT14=
EXTT15=
EXTT16=
EXTT17=
EXTT18=
EXTT19=
EXTT20=
PLAYORDER=
